HIERARCHY
ROOT mixamorig:Hips
{
	OFFSET 0.000000 104.274902 0.000000
	CHANNELS 6 Xposition Yposition Zposition Xrotation Yrotation Zrotation
	JOINT mixamorig:Spine
	{
		OFFSET 0.000000 10.181549 0.131524
		CHANNELS 6 Xposition Yposition Zposition Xrotation Yrotation Zrotation
		JOINT mixamorig:Spine1
		{
			OFFSET 0.000000 9.893990 -1.470706
			CHANNELS 3 Xrotation Yrotation Zrotation
			JOINT mixamorig:Spine2
			{
				OFFSET 0.000000 9.220787 -1.370637
				CHANNELS 3 Xrotation Yrotation Zrotation
				JOINT mixamorig:Neck
				{
					OFFSET 0.000000 16.740372 -2.049022
					CHANNELS 6 Xposition Yposition Zposition Xrotation Yrotation Zrotation
					JOINT mixamorig:Head
					{
						OFFSET 0.000000 9.617859 1.684976
						CHANNELS 6 Xposition Yposition Zposition Xrotation Yrotation Zrotation
						JOINT mixamorig:HeadTop_End
						{
							OFFSET 0.000000 22.037384 7.501072
							CHANNELS 6 Xposition Yposition Zposition Xrotation Yrotation Zrotation
							End Site
							{
								OFFSET 0.000000 23.106567 -2.828246
							}
						}
					}
				}
				JOINT mixamorig:RightShoulder
				{
					OFFSET -4.570000 11.014877 -2.160840
					CHANNELS 6 Xposition Yposition Zposition Xrotation Yrotation Zrotation
					JOINT mixamorig:RightArm
					{
						OFFSET -10.592867 -0.524796 -2.232105
						CHANNELS 3 Xrotation Yrotation Zrotation
						JOINT mixamorig:RightForeArm
						{
							OFFSET -27.841497 0.000000 -0.000002
							CHANNELS 3 Xrotation Yrotation Zrotation
							JOINT mixamorig:RightHand
							{
								OFFSET -28.328812 0.000000 -0.000001
								CHANNELS 3 Xrotation Yrotation Zrotation
								JOINT mixamorig:RightHandThumb1
								{
									OFFSET -2.464798 -1.573990 2.681911
									CHANNELS 6 Xposition Yposition Zposition Xrotation Yrotation Zrotation
									JOINT mixamorig:RightHandThumb2
									{
										OFFSET -3.244781 -1.873383 1.873376
										CHANNELS 3 Xrotation Yrotation Zrotation
										JOINT mixamorig:RightHandThumb3
										{
											OFFSET -2.646263 -1.527817 1.527818
											CHANNELS 6 Xposition Yposition Zposition Xrotation Yrotation Zrotation
											JOINT mixamorig:RightHandThumb4
											{
												OFFSET -1.994591 -1.151581 1.151575
												CHANNELS 6 Xposition Yposition Zposition Xrotation Yrotation Zrotation
												End Site
												{
													OFFSET -1.860176 -1.142715 1.365483
												}
											}
										}
									}
								}
								JOINT mixamorig:RightHandIndex1
								{
									OFFSET -9.108299 -0.517883 2.259803
									CHANNELS 6 Xposition Yposition Zposition Xrotation Yrotation Zrotation
									JOINT mixamorig:RightHandIndex2
									{
										OFFSET -3.699997 0.000000 0.000000
										CHANNELS 3 Xrotation Yrotation Zrotation
										JOINT mixamorig:RightHandIndex3
										{
											OFFSET -2.850006 0.000000 0.000000
											CHANNELS 3 Xrotation Yrotation Zrotation
											JOINT mixamorig:RightHandIndex4
											{
												OFFSET -2.772194 0.000000 0.000000
												CHANNELS 3 Xrotation Yrotation Zrotation
												End Site
												{
													OFFSET -2.772202 0.000000 -0.000484
												}
											}
										}
									}
								}
								JOINT mixamorig:RightHandMiddle1
								{
									OFFSET -9.532501 0.000000 -0.000000
									CHANNELS 6 Xposition Yposition Zposition Xrotation Yrotation Zrotation
									JOINT mixamorig:RightHandMiddle2
									{
										OFFSET -3.699997 0.000000 0.000000
										CHANNELS 3 Xrotation Yrotation Zrotation
										JOINT mixamorig:RightHandMiddle3
										{
											OFFSET -2.949997 0.000000 0.000000
											CHANNELS 3 Xrotation Yrotation Zrotation
											JOINT mixamorig:RightHandMiddle4
											{
												OFFSET -2.946594 0.000000 0.000000
												CHANNELS 3 Xrotation Yrotation Zrotation
												End Site
												{
													OFFSET -2.946602 0.000000 -0.000982
												}
											}
										}
									}
								}
								JOINT mixamorig:RightHandRing1
								{
									OFFSET -9.103600 -0.043106 -1.865100
									CHANNELS 6 Xposition Yposition Zposition Xrotation Yrotation Zrotation
									JOINT mixamorig:RightHandRing2
									{
										OFFSET -3.379303 0.000000 0.000000
										CHANNELS 3 Xrotation Yrotation Zrotation
										JOINT mixamorig:RightHandRing3
										{
											OFFSET -2.889694 0.000000 0.000000
											CHANNELS 3 Xrotation Yrotation Zrotation
											JOINT mixamorig:RightHandRing4
											{
												OFFSET -2.638802 0.000000 0.000000
												CHANNELS 3 Xrotation Yrotation Zrotation
												End Site
												{
													OFFSET -2.638802 0.000000 0.004218
												}
											}
										}
									}
								}
								JOINT mixamorig:RightHandPinky1
								{
									OFFSET -8.076698 -0.486725 -3.806299
									CHANNELS 6 Xposition Yposition Zposition Xrotation Yrotation Zrotation
									JOINT mixamorig:RightHandPinky2
									{
										OFFSET -3.600006 0.000000 0.000000
										CHANNELS 3 Xrotation Yrotation Zrotation
										JOINT mixamorig:RightHandPinky3
										{
											OFFSET -2.099998 0.000000 0.000000
											CHANNELS 3 Xrotation Yrotation Zrotation
											JOINT mixamorig:RightHandPinky4
											{
												OFFSET -2.115791 0.000000 0.000000
												CHANNELS 3 Xrotation Yrotation Zrotation
												End Site
												{
													OFFSET -2.115799 0.000000 0.000174
												}
											}
										}
									}
								}
							}
						}
					}
				}
				JOINT mixamorig:LeftShoulder
				{
					OFFSET 4.570400 11.014679 -2.160816
					CHANNELS 6 Xposition Yposition Zposition Xrotation Yrotation Zrotation
					JOINT mixamorig:LeftArm
					{
						OFFSET 10.592373 -0.524597 -2.232116
						CHANNELS 3 Xrotation Yrotation Zrotation
						JOINT mixamorig:LeftForeArm
						{
							OFFSET 27.841488 0.000000 0.000001
							CHANNELS 3 Xrotation Yrotation Zrotation
							JOINT mixamorig:LeftHand
							{
								OFFSET 28.328808 0.000000 -0.000000
								CHANNELS 3 Xrotation Yrotation Zrotation
								JOINT mixamorig:LeftHandThumb1
								{
									OFFSET 2.466103 -1.576202 2.681698
									CHANNELS 6 Xposition Yposition Zposition Xrotation Yrotation Zrotation
									JOINT mixamorig:LeftHandThumb2
									{
										OFFSET 3.243317 -1.872528 1.872530
										CHANNELS 3 Xrotation Yrotation Zrotation
										JOINT mixamorig:LeftHandThumb3
										{
											OFFSET 2.647881 -1.528763 1.528754
											CHANNELS 6 Xposition Yposition Zposition Xrotation Yrotation Zrotation
											JOINT mixamorig:LeftHandThumb4
											{
												OFFSET 1.998924 -1.154083 1.154080
												CHANNELS 6 Xposition Yposition Zposition Xrotation Yrotation Zrotation
												End Site
												{
													OFFSET 1.884041 -1.149155 1.337651
												}
											}
										}
									}
								}
								JOINT mixamorig:LeftHandIndex1
								{
									OFFSET 9.109299 -0.518005 2.259900
									CHANNELS 6 Xposition Yposition Zposition Xrotation Yrotation Zrotation
									JOINT mixamorig:LeftHandIndex2
									{
										OFFSET 3.699997 0.000000 0.000000
										CHANNELS 3 Xrotation Yrotation Zrotation
										JOINT mixamorig:LeftHandIndex3
										{
											OFFSET 2.850006 0.000000 0.000000
											CHANNELS 3 Xrotation Yrotation Zrotation
											JOINT mixamorig:LeftHandIndex4
											{
												OFFSET 2.774895 0.000000 0.000000
												CHANNELS 3 Xrotation Yrotation Zrotation
												End Site
												{
													OFFSET 2.774902 0.000000 -0.000072
												}
											}
										}
									}
								}
								JOINT mixamorig:LeftHandMiddle1
								{
									OFFSET 9.533401 0.000000 0.000000
									CHANNELS 6 Xposition Yposition Zposition Xrotation Yrotation Zrotation
									JOINT mixamorig:LeftHandMiddle2
									{
										OFFSET 3.699997 0.000000 0.000000
										CHANNELS 3 Xrotation Yrotation Zrotation
										JOINT mixamorig:LeftHandMiddle3
										{
											OFFSET 2.949997 0.000000 0.000000
											CHANNELS 3 Xrotation Yrotation Zrotation
											JOINT mixamorig:LeftHandMiddle4
											{
												OFFSET 2.952896 0.000000 0.000000
												CHANNELS 3 Xrotation Yrotation Zrotation
												End Site
												{
													OFFSET 2.952904 0.000000 0.000165
												}
											}
										}
									}
								}
								JOINT mixamorig:LeftHandRing1
								{
									OFFSET 9.104500 -0.042999 -1.865101
									CHANNELS 6 Xposition Yposition Zposition Xrotation Yrotation Zrotation
									JOINT mixamorig:LeftHandRing2
									{
										OFFSET 3.149994 0.000000 0.000000
										CHANNELS 3 Xrotation Yrotation Zrotation
										JOINT mixamorig:LeftHandRing3
										{
											OFFSET 2.950005 0.000000 0.000000
											CHANNELS 3 Xrotation Yrotation Zrotation
											JOINT mixamorig:LeftHandRing4
											{
												OFFSET 2.644302 0.000000 0.000000
												CHANNELS 3 Xrotation Yrotation Zrotation
												End Site
												{
													OFFSET 2.644302 0.000000 0.000083
												}
											}
										}
									}
								}
								JOINT mixamorig:LeftHandPinky1
								{
									OFFSET 8.077805 -0.486893 -3.806302
									CHANNELS 6 Xposition Yposition Zposition Xrotation Yrotation Zrotation
									JOINT mixamorig:LeftHandPinky2
									{
										OFFSET 3.600006 0.000000 0.000000
										CHANNELS 3 Xrotation Yrotation Zrotation
										JOINT mixamorig:LeftHandPinky3
										{
											OFFSET 2.099998 0.000000 0.000000
											CHANNELS 3 Xrotation Yrotation Zrotation
											JOINT mixamorig:LeftHandPinky4
											{
												OFFSET 2.125496 0.000000 0.000000
												CHANNELS 3 Xrotation Yrotation Zrotation
												End Site
												{
													OFFSET 2.125504 0.000000 -0.001254
												}
											}
										}
									}
								}
							}
						}
					}
				}
			}
		}
	}
	JOINT mixamorig:RightUpLeg
	{
		OFFSET -8.207800 -6.751701 -1.599544
		CHANNELS 6 Xposition Yposition Zposition Xrotation Yrotation Zrotation
		JOINT mixamorig:RightLeg
		{
			OFFSET 0.000004 -44.370152 0.345934
			CHANNELS 3 Xrotation Yrotation Zrotation
			JOINT mixamorig:RightFoot
			{
				OFFSET 0.000004 -44.423664 -3.043535
				CHANNELS 3 Xrotation Yrotation Zrotation
				JOINT mixamorig:RightToeBase
				{
					OFFSET 0.000001 -8.728691 10.710592
					CHANNELS 3 Xrotation Yrotation Zrotation
					JOINT mixamorig:RightToe_End
					{
						OFFSET 0.000000 -0.000665 9.278101
						CHANNELS 3 Xrotation Yrotation Zrotation
						End Site
						{
							OFFSET 0.000000 -0.000665 9.278103
						}
					}
				}
			}
		}
	}
	JOINT mixamorig:LeftUpLeg
	{
		OFFSET 8.207800 -6.751701 -1.599544
		CHANNELS 6 Xposition Yposition Zposition Xrotation Yrotation Zrotation
		JOINT mixamorig:LeftLeg
		{
			OFFSET 0.000004 -44.370037 0.346940
			CHANNELS 3 Xrotation Yrotation Zrotation
			JOINT mixamorig:LeftFoot
			{
				OFFSET 0.000004 -44.423611 -3.044388
				CHANNELS 3 Xrotation Yrotation Zrotation
				JOINT mixamorig:LeftToeBase
				{
					OFFSET 0.000001 -8.728690 10.710592
					CHANNELS 3 Xrotation Yrotation Zrotation
					JOINT mixamorig:LeftToe_End
					{
						OFFSET 0.000000 -0.000680 9.278101
						CHANNELS 3 Xrotation Yrotation Zrotation
						End Site
						{
							OFFSET 0.000000 -0.000680 9.278101
						}
					}
				}
			}
		}
	}
}
MOTION
Frames: 4
Frame Time: 0.033333
-1.644401 89.587173 1.676206 -2.481892 -34.708764 -1.989464 -0.000000 10.181555 0.131525 4.646925 1.406422 1.956148 7.328482 2.947303 1.069339 7.263251 3.102022 1.104265 0.000000 16.740370 -2.049025 9.672858 2.068567 -4.979146 -0.000007 9.617852 1.684971 18.889125 7.726284 -14.815920 0.000001 22.037384 7.501068 -0.000006 -0.000000 -0.000000 -4.570000 11.014874 -2.160842 3.717560 17.827603 0.729140 -20.707061 26.883963 64.422180 0.000116 126.831791 -0.000059 2.870868 5.675172 -12.064245 -2.464798 -1.574010 2.681911 -0.815710 -16.226016 6.504792 17.424093 -21.200402 1.267173 -2.646258 -1.527800 1.527832 18.064184 -57.087609 -8.376623 -1.994601 -1.151557 1.151579 -0.000000 -0.000003 0.000001 -9.108327 -0.517881 2.259800 5.628752 -6.822398 79.026791 7.017413 -6.947886 90.571963 3.897145 -6.245452 63.897028 0.000000 0.000001 0.000002 -9.532520 0.000000 -0.000002 5.628752 -6.822399 79.026791 7.017416 -6.947882 90.571963 3.897148 -6.245453 63.897028 0.000001 -0.000002 -0.000002 -9.103607 -0.043107 -1.865099 5.628753 -6.822398 79.026778 7.017418 -6.947885 90.571963 3.897147 -6.245452 63.897034 0.000002 -0.000001 0.000002 -8.076703 -0.486721 -3.806300 5.628754 -6.822398 79.026791 7.017426 -6.947901 90.571969 3.897163 -6.245445 63.897048 0.000000 -0.000001 0.000001 4.570404 11.014679 -2.160818 -0.831790 8.296301 -6.638019 -25.420948 -22.476872 -68.749904 0.000054 -110.668223 0.000061 13.191903 -3.860717 14.155065 2.466091 -1.576199 2.681699 9.056474 10.602076 -5.965591 9.417652 22.103554 3.251280 2.647886 -1.528771 1.528750 2.732888 51.440067 6.459202 1.998917 -1.154083 1.154086 -0.000001 0.000002 0.000003 9.109281 -0.518001 2.259895 5.468816 6.735536 -78.128048 8.288579 6.736602 -101.829262 5.506356 6.743264 -78.448042 -0.000000 -0.000001 -0.000002 9.533397 0.000002 0.000001 5.466904 6.735135 -78.111847 8.290486 6.736210 -101.845456 5.506345 6.743262 -78.448049 0.000001 -0.000000 -0.000003 9.104496 -0.043000 -1.865101 5.468817 6.735536 -78.128048 8.288578 6.736608 -101.829248 5.506367 6.743276 -78.448042 0.000002 -0.000000 0.000001 8.077808 -0.486896 -3.806305 7.578360 7.180641 -77.998855 8.273360 2.652896 -101.675583 5.501541 6.742268 -78.406979 0.000000 -0.000001 -0.000002 -8.207808 -6.751707 -1.599545 -6.631770 -14.650177 -18.524457 45.541717 -7.313236 -1.213626 -31.923495 -7.472354 22.133308 0.094629 -0.000009 -0.000008 -0.000000 -0.000000 -0.000000 8.207802 -6.751703 -1.599541 -34.021951 3.281700 20.142827 46.803728 -8.462589 10.075662 -17.492675 -11.864714 -24.162779 0.191303 -0.000010 0.000006 0.000000 0.000002 -0.000000 
-1.609102 89.011597 2.546405 -3.018318 -34.381052 -2.138044 0.000000 10.181545 0.131525 4.908369 1.493463 1.920700 7.592271 3.103820 0.992038 7.524270 3.259468 1.035389 0.000001 16.740396 -2.049022 9.714761 2.004493 -4.944995 -0.000001 9.617862 1.684968 19.387500 7.278503 -14.557640 -0.000000 22.037384 7.501061 -0.000001 -0.000000 0.000000 -4.569999 11.014874 -2.160840 3.810833 18.359359 0.647308 -21.158640 26.383979 64.269457 0.000157 126.510581 -0.000105 2.060730 5.910499 -12.194042 -2.464792 -1.573998 2.681920 -0.815709 -16.226016 6.504794 17.424096 -21.200403 1.267172 -2.646263 -1.527801 1.527823 18.064175 -57.087616 -8.376625 -1.994590 -1.151582 1.151584 0.000000 -0.000003 -0.000000 -9.108329 -0.517881 2.259815 5.628755 -6.822393 79.026791 7.017410 -6.947886 90.571963 3.897148 -6.245448 63.897028 0.000001 -0.000001 0.000002 -9.532519 0.000010 0.000006 5.628753 -6.822396 79.026791 7.017410 -6.947885 90.571963 3.897149 -6.245448 63.897028 0.000002 0.000000 0.000001 -9.103607 -0.043103 -1.865095 5.628754 -6.822395 79.026785 7.017408 -6.947886 90.571963 3.897147 -6.245450 63.897028 0.000004 0.000001 0.000005 -8.076716 -0.486723 -3.806292 5.628755 -6.822398 79.026791 7.017424 -6.947901 90.571963 3.897164 -6.245443 63.897041 -0.000000 0.000001 0.000001 4.570402 11.014680 -2.160817 -0.796291 8.153709 -6.435117 -25.686007 -23.038964 -69.257620 -0.000010 -109.814798 -0.000022 13.850653 -2.953289 14.131590 2.466083 -1.576198 2.681710 9.056476 10.602079 -5.965586 9.417655 22.103563 3.251282 2.647894 -1.528725 1.528759 2.732881 51.440067 6.459202 1.998917 -1.154096 1.154085 -0.000003 0.000001 -0.000000 9.109263 -0.518001 2.259913 5.468813 6.735536 -78.128048 8.288583 6.736599 -101.829255 5.506357 6.743269 -78.448049 -0.000005 -0.000000 -0.000001 9.533397 -0.000010 0.000006 5.466900 6.735136 -78.111847 8.290485 6.736210 -101.845456 5.506344 6.743260 -78.448049 0.000001 -0.000002 -0.000003 9.104479 -0.043000 -1.865091 5.468815 6.735535 -78.128048 8.288574 6.736605 -101.829248 5.506367 6.743272 -78.448042 -0.000003 -0.000000 -0.000001 8.077789 -0.486885 -3.806296 7.578359 7.180637 -77.998855 8.273354 2.652893 -101.675576 5.501537 6.742270 -78.406972 -0.000003 -0.000002 -0.000001 -8.207801 -6.751713 -1.599544 -6.354647 -16.026175 -19.716545 46.090332 -5.869171 -1.370496 -32.579128 -7.686686 22.266471 -0.000044 0.000039 0.000001 -0.000000 0.000000 0.000000 8.207798 -6.751696 -1.599545 -34.510023 3.240671 19.971118 49.296648 -8.727053 9.975117 -18.312243 -11.455884 -23.790367 0.046782 -0.000066 0.081092 0.000000 -0.000001 0.000000 
-1.556238 88.380135 3.862594 -3.885641 -34.677366 -2.286287 -0.000001 10.181550 0.131523 5.390674 1.667113 1.936578 8.031257 3.409778 0.978025 7.957690 3.561520 1.042029 -0.000001 16.740366 -2.049020 9.782626 1.969027 -4.958768 -0.000007 9.617838 1.684970 20.215579 6.964910 -14.764205 0.000000 22.037369 7.501084 -0.000004 0.000000 -0.000000 -4.570001 11.014874 -2.160843 3.885873 18.723671 0.536217 -22.221440 26.461860 63.550525 0.000115 126.022222 -0.000060 1.295822 6.394718 -12.098510 -2.464789 -1.574015 2.681915 -0.815709 -16.226018 6.504791 17.424093 -21.200398 1.267177 -2.646269 -1.527793 1.527818 18.064172 -57.087619 -8.376623 -1.994606 -1.151595 1.151572 0.000004 -0.000002 0.000003 -9.108311 -0.517883 2.259809 5.628753 -6.822399 79.026791 7.017406 -6.947886 90.571963 3.897146 -6.245445 63.897028 -0.000003 -0.000003 -0.000000 -9.532503 0.000000 0.000007 5.628753 -6.822399 79.026791 7.017406 -6.947884 90.571963 3.897146 -6.245447 63.897028 0.000001 -0.000001 -0.000000 -9.103591 -0.043106 -1.865091 5.628754 -6.822399 79.026778 7.017409 -6.947885 90.571963 3.897149 -6.245450 63.897028 0.000000 0.000001 0.000002 -8.076686 -0.486719 -3.806298 5.628754 -6.822401 79.026791 7.017423 -6.947901 90.571969 3.897165 -6.245448 63.897041 -0.000001 -0.000001 0.000001 4.570402 11.014685 -2.160817 -0.935503 8.707434 -6.372664 -24.998875 -24.218929 -69.568946 0.000002 -109.332361 0.000013 15.158001 -2.198949 15.177070 2.466106 -1.576202 2.681696 9.056475 10.602079 -5.965588 9.417654 22.103556 3.251281 2.647877 -1.528731 1.528752 2.732885 51.440071 6.459205 1.998921 -1.154091 1.154074 0.000000 0.000000 -0.000002 9.109302 -0.518005 2.259896 5.468815 6.735535 -78.128041 8.288582 6.736599 -101.829262 5.506357 6.743270 -78.448035 0.000000 -0.000002 0.000000 9.533400 0.000000 -0.000003 5.466903 6.735139 -78.111847 8.290482 6.736209 -101.845463 5.506345 6.743261 -78.448049 -0.000006 0.000000 -0.000001 9.104500 -0.043002 -1.865101 5.468817 6.735534 -78.128041 8.288579 6.736607 -101.829248 5.506370 6.743272 -78.448042 0.000002 0.000001 0.000001 8.077810 -0.486889 -3.806302 7.578360 7.180638 -77.998855 8.273354 2.652893 -101.675576 5.501540 6.742265 -78.406979 0.000006 0.000002 -0.000001 -8.207805 -6.751706 -1.599545 -6.036888 -17.700126 -21.571594 46.418191 -3.269299 -1.830790 -33.396449 -7.887659 22.230755 -0.363806 0.000020 -0.000005 0.000000 0.000001 0.000000 8.207799 -6.751704 -1.599546 -35.808254 2.742571 20.231565 54.113564 -8.731895 8.750457 -16.665120 -11.435943 -23.046542 -3.135474 -0.007262 0.847894 0.000000 -0.000000 0.000000 
-1.450123 87.678757 5.904891 -4.918592 -35.865631 -2.446380 0.000001 10.181547 0.131523 6.021257 1.959028 1.956170 8.572819 3.919822 0.884691 8.494387 4.055756 0.986227 -0.000000 16.740376 -2.049020 9.896227 1.947823 -4.888621 -0.000003 9.617841 1.684962 21.323651 6.930160 -15.587655 -0.000000 22.037369 7.501074 -0.000003 -0.000000 0.000000 -4.569999 11.014877 -2.160839 3.917436 19.032431 0.732991 -23.564545 27.370738 62.542601 0.000136 125.479072 -0.000072 1.051921 6.899760 -11.844649 -2.464795 -1.573998 2.681903 -0.815709 -16.226013 6.504792 17.424099 -21.200407 1.267176 -2.646270 -1.527800 1.527813 18.064189 -57.087623 -8.376627 -1.994590 -1.151592 1.151570 0.000003 -0.000005 -0.000000 -9.108312 -0.517883 2.259801 5.628755 -6.822397 79.026791 7.017409 -6.947886 90.571963 3.897147 -6.245449 63.897028 0.000001 0.000002 0.000002 -9.532520 0.000008 -0.000006 5.628754 -6.822397 79.026791 7.017411 -6.947885 90.571963 3.897148 -6.245448 63.897028 0.000003 0.000002 0.000000 -9.103606 -0.043099 -1.865112 5.628753 -6.822398 79.026778 7.017406 -6.947885 90.571963 3.897147 -6.245450 63.897028 0.000001 -0.000004 0.000003 -8.076702 -0.486727 -3.806299 5.628753 -6.822402 79.026791 7.017419 -6.947902 90.571963 3.897165 -6.245446 63.897048 0.000002 -0.000001 0.000000 4.570401 11.014688 -2.160815 -1.204349 9.795974 -6.607339 -22.016102 -25.811710 -69.047701 0.000021 -110.069270 0.000005 17.560809 -1.368449 16.427659 2.466103 -1.576213 2.681695 9.056480 10.602071 -5.965585 9.417656 22.103559 3.251282 2.647875 -1.528757 1.528748 2.732892 51.440067 6.459217 1.998924 -1.154091 1.154072 -0.000001 0.000002 0.000003 9.109286 -0.518007 2.259891 5.468817 6.735536 -78.128041 8.288579 6.736599 -101.829255 5.506354 6.743268 -78.448042 0.000001 -0.000000 -0.000002 9.533400 0.000010 -0.000011 5.466907 6.735128 -78.111847 8.290490 6.736210 -101.845456 5.506344 6.743263 -78.448042 0.000001 -0.000000 -0.000000 9.104498 -0.042973 -1.865105 5.468817 6.735536 -78.128048 8.288578 6.736606 -101.829241 5.506367 6.743276 -78.448042 0.000000 -0.000000 0.000001 8.077808 -0.486900 -3.806306 7.578362 7.180638 -77.998855 8.273358 2.652894 -101.675576 5.501542 6.742268 -78.406979 -0.000000 -0.000000 0.000000 -8.207800 -6.751717 -1.599545 -5.678294 -19.320059 -24.064056 46.111102 0.352749 -2.766659 -33.943967 -8.174852 22.403599 -1.418183 0.000011 -0.000012 0.000000 0.000001 -0.000000 8.207801 -6.751713 -1.599545 -38.178486 1.430417 20.917541 61.352734 -9.123474 6.882966 -10.733416 -12.031938 -25.732348 -9.835174 -0.144688 3.765692 0.000000 0.000002 -0.000001 
